<?xml version="1.0" encoding="UTF-8" standalone="no"?>
<svg
   xmlns:dc="http://purl.org/dc/elements/1.1/"
   xmlns:cc="http://creativecommons.org/ns#"
   xmlns:rdf="http://www.w3.org/1999/02/22-rdf-syntax-ns#"
   xmlns:svg="http://www.w3.org/2000/svg"
   xmlns="http://www.w3.org/2000/svg"
   xmlns:sodipodi="http://sodipodi.sourceforge.net/DTD/sodipodi-0.dtd"
   xmlns:inkscape="http://www.inkscape.org/namespaces/inkscape"
   fill="none"
   viewBox="0 0 64 66"
   version="1.1"
   id="svg4081"
   sodipodi:docname="car.svg"
   inkscape:version="1.0.2 (e86c870879, 2021-01-15, custom)">
  <metadata
     id="metadata4085">
    <rdf:RDF>
      <cc:Work
         rdf:about="">
        <dc:format>image/svg+xml</dc:format>
        <dc:type
           rdf:resource="http://purl.org/dc/dcmitype/StillImage" />
      </cc:Work>
    </rdf:RDF>
  </metadata>
  <sodipodi:namedview
     pagecolor="#ffffff"
     bordercolor="#666666"
     borderopacity="1"
     objecttolerance="10"
     gridtolerance="10"
     guidetolerance="10"
     inkscape:pageopacity="0"
     inkscape:pageshadow="2"
     inkscape:window-width="1920"
     inkscape:window-height="1012"
     id="namedview4083"
     showgrid="false"
     inkscape:zoom="9.0638233"
     inkscape:cx="36.135843"
     inkscape:cy="29.32117"
     inkscape:window-x="-8"
     inkscape:window-y="-8"
     inkscape:window-maximized="1"
     inkscape:current-layer="svg4081" />
  <defs
     id="defs4067" />
  <path
     style="fill:#fdc20e;fill-opacity:1;stroke-width:0.0450392"
     d="M 12.033168,52.209107 C 9.6628225,52.173481 9.6122535,52.170753 9.2136995,52.056321 8.1364774,51.74707 7.3570563,51.247385 6.619063,50.392911 6.0661629,49.752738 5.6722324,49.016292 5.415407,48.142698 5.1983695,47.404438 5.1384481,46.95856 5.1393079,46.088184 c 0.00104,-1.14526 0.1798522,-1.991227 0.6257429,-2.961898 0.7062045,-1.537358 1.895939,-2.590436 3.4486487,-3.052538 0.398098,-0.118476 0.446133,-0.121533 2.5204335,-0.160266 6.74397,-0.12593 41.594846,-0.08768 42.913742,0.04711 1.100635,0.112473 2.29598,0.772803 3.12601,1.726856 1.065376,1.224578 1.599155,2.818032 1.537794,4.590706 -0.05849,1.689721 -0.623958,3.141695 -1.651816,4.241385 -0.622289,0.665794 -1.269359,1.087566 -2.163717,1.410368 -0.384919,0.13893 -0.495115,0.156495 -1.213668,0.193406 -2.341514,0.120278 -35.479138,0.187593 -42.24931,0.08581 z m 34.709369,-4.319089 c 1.997123,-0.02737 3.921899,-0.06644 4.277283,-0.08681 0.594455,-0.0341 0.662004,-0.04742 0.844497,-0.166292 0.426219,-0.277635 0.709928,-0.894722 0.708884,-1.54186 -9.62e-4,-0.692988 -0.25617,-1.257862 -0.723032,-1.601287 -0.153985,-0.113269 -0.207147,-0.121534 -1.05429,-0.164093 -4.19186,-0.210553 -31.415699,-0.243637 -36.707277,-0.04462 -1.247159,0.04694 -1.256683,0.04806 -1.468011,0.175897 -0.963214,0.582744 -0.99335,2.560715 -0.04839,3.176286 0.185793,0.121028 0.235514,0.129164 1.034887,0.169253 0.461845,0.02319 2.156537,0.05922 3.765983,0.08008 4.428125,0.05753 25.243603,0.05994 29.369468,0.0033 z"
     id="path3396" />
  <path
     style="fill:#1a4f83;fill-opacity:1;stroke-width:0.0485084"
     d="m 18.315509,48.122484 c -3.699883,-0.04373 -5.508403,-0.109737 -5.714214,-0.208707 -0.209562,-0.100762 -0.528372,-0.531326 -0.659703,-0.890943 -0.113024,-0.309499 -0.124202,-0.394121 -0.124202,-0.940195 0,-0.547727 0.01061,-0.627381 0.121565,-0.913178 0.13835,-0.356326 0.426173,-0.746179 0.650153,-0.880599 0.123041,-0.07382 0.380628,-0.101034 1.350789,-0.142597 2.715842,-0.116342 11.703137,-0.176884 21.708616,-0.146239 12.313161,0.03771 15.904294,0.109778 16.313735,0.327384 0.195248,0.103772 0.493115,0.528862 0.630715,0.900114 0.101418,0.273615 0.114757,0.376139 0.114757,0.882397 0,0.504894 -0.01348,0.609151 -0.113665,0.879388 -0.146828,0.396047 -0.399413,0.747929 -0.629659,0.87719 -0.27641,0.155186 -1.286047,0.199496 -5.942334,0.260808 -4.681475,0.06163 -22.338101,0.05858 -27.706553,-0.0048 z"
     id="path3967" />
  <path
     style="fill:#1a4f83;fill-opacity:1;stroke-width:0.0441403"
     d="M 10.280591,55.82315 C 9.4622815,55.794502 9.1093265,55.734849 8.1026757,55.454795 6.9633078,55.13781 5.701511,54.41072 4.7993736,53.551319 2.4296143,51.29382 1.402642,47.482793 2.2088941,43.938224 2.6099229,42.175154 3.3672543,40.699245 4.5047392,39.464043 5.5748674,38.30199 6.7176229,37.578133 8.346047,37.030856 l 0.6659705,-0.223817 0.02114,-7.620617 0.02115,-7.620617 0.211428,-0.436168 c 0.378367,-0.780538 0.600616,-0.919958 1.6102735,-1.010141 0.814211,-0.0727 6.131443,-0.07832 6.524349,-0.0072 0.636707,0.115796 0.96457,0.301121 1.353847,0.765221 0.410865,0.489849 0.593891,0.873699 1.887894,3.959368 0.403839,0.962991 1.046221,2.486958 1.427518,3.386598 l 0.693267,1.635711 8.886583,0.01164 8.88658,0.01163 -9.63e-4,-3.628605 -9.62e-4,-3.628615 -2.206762,-1.462533 -2.206763,-1.462549 -0.0835,0.149369 c -0.649179,1.16134 -1.210603,1.9011 -1.593463,2.099649 -0.242377,0.125689 -0.538969,0.129926 -0.753343,0.01075 -0.205874,-0.11444 -0.537703,-0.479739 -0.651277,-0.716971 -0.298609,-0.6237 0.03669,-1.410762 2.267117,-5.321801 0.840902,-1.474521 1.383997,-2.34055 1.672144,-2.666449 0.277648,-0.256275 0.414963,-0.348818 0.760798,-0.392388 0.542181,-0.06829 0.749028,0.093 0.905884,0.178673 0.358923,0.196006 0.537614,0.486439 0.53722,0.815965 -4.73e-4,0.440036 -0.204027,0.914791 -0.889977,2.076202 -0.255171,0.432044 -0.458961,0.79065 -0.452867,0.796909 0.0061,0.0064 0.733242,0.492496 1.615884,1.080553 1.523534,1.015027 1.611337,1.066784 1.733718,1.021888 0.0709,-0.026 0.26673,-0.101436 0.435181,-0.167632 1.314562,-0.516505 4.255472,0.147708 6.734307,1.520973 1.274866,0.706268 2.623114,1.823828 3.554412,2.946235 1.625056,1.958537 2.565761,4.370436 2.933209,7.520532 0.136755,1.172396 0.163712,1.729761 0.188723,3.902276 l 0.02595,2.253632 0.545211,0.178609 c 2.028439,0.66447 3.467757,1.641881 4.618509,3.136302 2.853823,3.706111 2.686406,9.265194 -0.385232,12.791371 -0.919113,1.055118 -2.266164,1.979159 -3.636778,2.494717 l -0.507425,0.19087 -1.226288,0.03988 c -1.663845,0.054 -8.638973,0.129662 -16.914304,0.183431 -7.25485,0.04718 -25.91857,0.04654 -27.274306,-8.03e-4 z M 40.76862,52.274183 c 5.511947,-0.02495 10.87801,-0.065 11.924582,-0.08907 1.829169,-0.04204 1.917599,-0.04815 2.283431,-0.157834 1.756415,-0.526599 3.054351,-1.835181 3.652566,-3.682519 0.244274,-0.754349 0.317207,-1.250529 0.316214,-2.151221 -9.64e-4,-0.881475 -0.07758,-1.421434 -0.295718,-2.084195 -0.637331,-1.936397 -1.933526,-3.225385 -3.767443,-3.746488 l -0.413049,-0.117369 -3.298285,-0.04253 c -4.279597,-0.05521 -33.617842,-0.05545 -38.020752,-2.57e-4 -3.2482085,0.04069 -3.4033255,0.04654 -3.7409975,0.140455 -0.5379947,0.149673 -0.8236943,0.265446 -1.2798767,0.518638 -1.451463,0.805632 -2.4599907,2.303486 -2.8038209,4.164225 -0.1045001,0.565541 -0.1051762,1.904318 -0.00129,2.466071 0.2243917,1.212847 0.7347269,2.283658 1.4672684,3.078705 0.8757025,0.950433 2.0057225,1.523733 3.1930962,1.61999 0.5453055,0.04422 9.4600205,0.108497 16.8931625,0.121839 2.128029,0.004 8.378919,-0.01348 13.890866,-0.03844 z M 51.815979,36.633774 c 0.006,-0.0048 0.02264,-0.701951 0.03714,-1.548673 0.04287,-2.503054 -0.116031,-4.151105 -0.558834,-5.796492 -1.04519,-3.883757 -3.408639,-6.292833 -6.853892,-6.986181 -0.313176,-0.06308 -0.587169,-0.114593 -0.608878,-0.114593 -0.02417,0 -0.0396,1.667494 -0.03983,4.296599 -4.74e-4,4.981153 -0.03329,5.787273 -0.25889,6.346995 -0.169408,0.42036 -0.49967,0.650308 -1.064451,0.741109 -0.764257,0.122888 -20.211468,0.125521 -20.940745,0.0033 -0.49594,-0.08348 -0.705972,-0.239843 -1.029038,-0.766169 -0.402197,-0.655242 -0.731496,-1.41191 -2.657266,-6.105951 -0.639399,-1.558526 -1.174985,-2.846687 -1.19019,-2.862575 -0.0152,-0.01588 -1.002861,-0.04301 -2.194789,-0.06026 l -2.167144,-0.03138 v 6.47657 6.476569 l 19.75802,-0.0296 c 10.866905,-0.01629 19.762867,-0.0337 19.768793,-0.03875 z"
     id="path3969"
     sodipodi:nodetypes="cssssscccsssssscccccccsssssccscssssssssscsssscssccsscscsscsssssssscsscsssscsscsssccccscc" />
  <path
     style="fill:#56abe1;fill-opacity:1;stroke-width:0.124847"
     d="m 12.020071,30.316451 0.179402,-6.64648 c 1.714881,-0.05938 3.831754,-0.537881 5.329412,0.553689 1.657976,1.208418 2.765648,5.718049 2.765648,5.718049 l 0.840596,3.567726 10.415718,0.01901 c 11.496407,-0.127881 11.277442,0.261514 11.76367,-0.45191 0.243084,-0.356664 0.371323,-0.459261 0.406455,-5.506902 l 0.03366,-5.565863 0.322579,0.07751 c 2.61623,0.628441 4.469349,1.814383 5.738602,3.641316 1.595763,2.296906 2.24867,5.82001 2.05266,9.836174 l -0.05248,1.075168 -19.864938,0.06844 H 12.020071 Z"
     id="path3971"
     sodipodi:nodetypes="ccccccsscssscccc" />
</svg>
