<svg xmlns="http://www.w3.org/2000/svg" fill="none" viewBox="0 0 64 66">
  <defs/>
  <path fill="#fdc20e" d="M12.033 52.21c-2.37-.037-2.42-.04-2.82-.154-1.077-.309-1.856-.809-2.594-1.663-.553-.64-.947-1.377-1.204-2.25-.217-.739-.277-1.184-.276-2.055.001-1.145.18-1.991.626-2.962.706-1.537 1.896-2.59 3.449-3.052.398-.119.446-.122 2.52-.16 6.744-.126 41.595-.088 42.914.047 1.1.112 2.296.772 3.126 1.726 1.065 1.225 1.599 2.818 1.538 4.591-.059 1.69-.624 3.142-1.652 4.242-.622.665-1.27 1.087-2.164 1.41-.385.139-.495.156-1.214.193-2.341.12-35.479.188-42.249.086zm34.71-4.32c1.997-.027 3.921-.066 4.277-.087.594-.034.662-.047.844-.166.427-.278.71-.895.71-1.542-.002-.693-.257-1.258-.724-1.601-.154-.113-.207-.122-1.054-.164-4.192-.21-31.416-.244-36.707-.045-1.248.047-1.257.048-1.468.176-.964.583-.994 2.56-.049 3.176.186.121.236.13 1.035.17.462.023 2.157.059 3.766.08 4.428.057 25.244.06 29.37.003z"/>
  <path fill="#1a4f83" d="M18.316 48.122c-3.7-.043-5.509-.11-5.715-.208-.21-.101-.528-.532-.66-.891-.112-.31-.124-.394-.124-.94 0-.548.011-.628.122-.914.138-.356.426-.746.65-.88.123-.074.38-.101 1.35-.143 2.717-.116 11.704-.177 21.71-.146 12.313.038 15.904.11 16.313.327.195.104.493.53.631.9.101.274.115.377.115.883 0 .505-.014.61-.114.88-.147.395-.4.747-.63.876-.276.156-1.286.2-5.942.261-4.681.062-22.338.059-27.706-.004z"/>
  <path fill="#1a4f83" d="M10.28 55.823c-.818-.028-1.17-.088-2.177-.368-1.14-.317-2.401-1.044-3.304-1.904-2.37-2.257-3.396-6.068-2.59-9.613.4-1.763 1.158-3.239 2.296-4.474 1.07-1.162 2.213-1.886 3.841-2.433l.666-.224.021-7.62.021-7.621.212-.436c.378-.78.6-.92 1.61-1.01.814-.073 6.131-.079 6.524-.008.637.116.965.301 1.354.766.411.49.594.873 1.888 3.959.404.963 1.046 2.487 1.428 3.386l.693 1.636 8.886.012 8.887.011v-3.628l-.002-3.629-2.207-1.462-2.206-1.463-.084.15c-.65 1.16-1.21 1.9-1.593 2.1-.243.125-.54.13-.754.01-.206-.115-.537-.48-.651-.717-.299-.624.037-1.41 2.267-5.322.841-1.474 1.384-2.34 1.672-2.666.278-.257.415-.35.761-.393.542-.068.75.093.906.179.359.196.538.486.537.816 0 .44-.204.915-.89 2.076-.255.432-.459.79-.453.797.006.006.734.493 1.616 1.08 1.524 1.016 1.612 1.067 1.734 1.023.07-.026.267-.102.435-.168 1.315-.517 4.256.148 6.734 1.52a13.267 13.267 0 013.555 2.947c1.625 1.959 2.566 4.37 2.933 7.52.137 1.173.164 1.73.189 3.903l.026 2.254.545.178c2.028.665 3.468 1.642 4.618 3.136 2.854 3.707 2.687 9.266-.385 12.792-.919 1.055-2.266 1.979-3.637 2.495l-.507.19-1.226.04c-1.664.054-8.64.13-16.915.184-7.254.047-25.918.046-27.274-.001zm30.489-3.549c5.512-.025 10.878-.065 11.924-.089 1.83-.042 1.918-.048 2.284-.158 1.756-.526 3.054-1.835 3.652-3.682.244-.755.317-1.25.316-2.151 0-.882-.077-1.422-.295-2.085-.638-1.936-1.934-3.225-3.768-3.746l-.413-.118-3.298-.042c-4.28-.055-33.618-.055-38.02 0-3.249.04-3.404.046-3.742.14a5.04 5.04 0 00-1.28.519c-1.451.805-2.46 2.303-2.804 4.164-.104.566-.105 1.904 0 2.466.224 1.213.734 2.284 1.466 3.079.876.95 2.006 1.524 3.194 1.62.545.044 9.46.108 16.893.122 2.128.004 8.379-.014 13.89-.039zm11.047-15.64c.006-.005.023-.702.037-1.549.043-2.503-.116-4.151-.559-5.796-1.045-3.884-3.408-6.293-6.854-6.987a13.77 13.77 0 00-.608-.114c-.025 0-.04 1.667-.04 4.296 0 4.982-.034 5.788-.26 6.347-.169.42-.499.65-1.064.742-.764.122-20.211.125-20.94.003-.496-.084-.706-.24-1.03-.766-.402-.656-.73-1.412-2.657-6.106a169.049 169.049 0 00-1.19-2.863c-.015-.016-1.003-.043-2.195-.06l-2.167-.031v12.953l19.758-.03c10.867-.016 19.763-.034 19.769-.039z"/>
  <path fill="#56abe1" d="M12.02 30.316l.18-6.646c1.714-.06 3.831-.538 5.329.554 1.658 1.208 2.766 5.718 2.766 5.718l.84 3.567 10.416.02c11.496-.128 11.277.261 11.764-.452.243-.357.37-.46.406-5.507l.034-5.566.322.077c2.616.629 4.47 1.815 5.739 3.642 1.596 2.297 2.248 5.82 2.052 9.836l-.052 1.075-19.865.068h-19.93z"/>
</svg>
