<?xml version="1.0" encoding="UTF-8" standalone="no"?>
<svg
   xmlns:dc="http://purl.org/dc/elements/1.1/"
   xmlns:cc="http://creativecommons.org/ns#"
   xmlns:rdf="http://www.w3.org/1999/02/22-rdf-syntax-ns#"
   xmlns:svg="http://www.w3.org/2000/svg"
   xmlns="http://www.w3.org/2000/svg"
   xmlns:sodipodi="http://sodipodi.sourceforge.net/DTD/sodipodi-0.dtd"
   xmlns:inkscape="http://www.inkscape.org/namespaces/inkscape"
   fill="none"
   viewBox="0 0 64 66"
   version="1.1"
   id="svg867"
   sodipodi:docname="gramophone.svg"
   inkscape:version="1.0.2 (e86c870879, 2021-01-15, custom)">
  <metadata
     id="metadata871">
    <rdf:RDF>
      <cc:Work
         rdf:about="">
        <dc:format>image/svg+xml</dc:format>
        <dc:type
           rdf:resource="http://purl.org/dc/dcmitype/StillImage" />
      </cc:Work>
    </rdf:RDF>
  </metadata>
  <sodipodi:namedview
     pagecolor="#ffffff"
     bordercolor="#666666"
     borderopacity="1"
     objecttolerance="10"
     gridtolerance="10"
     guidetolerance="10"
     inkscape:pageopacity="0"
     inkscape:pageshadow="2"
     inkscape:window-width="1920"
     inkscape:window-height="1012"
     id="namedview869"
     showgrid="false"
     inkscape:zoom="12.439394"
     inkscape:cx="44.942532"
     inkscape:cy="37.608384"
     inkscape:window-x="-8"
     inkscape:window-y="-8"
     inkscape:window-maximized="1"
     inkscape:current-layer="svg867"
     inkscape:document-rotation="0" />
  <defs
     id="defs853" />
  <g
     id="g1052">
    <path
       style="fill:#2d527c"
       d="m 21.217,26.658 c -0.495,-0.882 -1.624,-1.18 -2.534,-0.67 l -3.192,1.794 c -0.911,0.51 -1.243,1.63 -0.747,2.513 0.496,0.882 1.624,1.18 2.534,0.67 l 3.192,-1.794 c 0.911,-0.51 1.243,-1.63 0.747,-2.513 z"
       id="path878" />
    <path
       style="fill:#2d527c"
       d="m 21.217,10.837 c -0.495,0.883 -1.624,1.18 -2.534,0.67 L 15.49,9.714 C 14.579,9.204 14.247,8.084 14.743,7.201 15.239,6.318 16.367,6.02 17.277,6.531 l 3.192,1.793 c 0.911,0.51 1.243,1.63 0.747,2.513 z"
       id="path876" />
    <path
       style="fill:#2d527c"
       d="m 16.557,18.77 c -0.02,1.012 -0.873,1.808 -1.917,1.788 l -3.66,-0.07 C 9.936,20.469 9.114,19.64 9.133,18.628 c 0.02,-1.013 0.873,-1.81 1.917,-1.79 l 3.66,0.07 c 1.044,0.02 1.866,0.849 1.847,1.861 z"
       id="path855" />
    <path
       fill="#ffc10e"
       d="m 48.428,27.37 c -1.134,-0.326 -4.131,-0.861 -5.965,-1.065 -2.769,-0.307 -5.44,-0.422 -9.782,-0.422 l -4.202,0.001 0.033,-6.571 0.033,-6.571 0.32,0.04 c 0.58,0.071 3.292,0.796 4.576,1.221 1.526,0.506 4.125,1.644 5.567,2.438 3.66,2.016 6.728,4.768 8.61,7.724 0.614,0.966 1.771,3.165 1.771,3.367 0,0.102 -0.101,0.085 -0.962,-0.163 z"
       id="path859" />
    <path
       fill="#cee8fa"
       d="M 10.389246,54.277202 V 47.97642 h 32.9375 v 12.601563 h -32.9375 z"
       id="path865"
       style="stroke-width:1.00781" />
    <path
       style="fill:none;stroke:#000000;stroke-width:0;stroke-linecap:butt;stroke-linejoin:miter;stroke-opacity:1;stroke-miterlimit:4;stroke-dasharray:none"
       d="M 60.292326,36.738124 40.677223,36.818514 28.457978,36.175396 27.57369,38.828258 15.274056,40.436053 4.3410475,42.445798 1.4470158,47.108404 1.6881851,57.398294 2.4920828,65.598051 57.237515,65.517661 62.38246,52.17296 Z"
       id="path960" />
    <path
       style="fill:none;stroke:#000000;stroke-width:0;stroke-linecap:butt;stroke-linejoin:miter;stroke-opacity:1;stroke-miterlimit:4;stroke-dasharray:none"
       d="M 61.900122,40.275274 56.514007,65.035322 14.228989,65.598051 2.2509135,64.151035 2.9744214,42.686967 14.630938,37.059683 34.80877,36.979293 61.819732,36.738124 Z"
       id="path998" />
    <path
       id="path1027"
       style="fill:#2d527c;fill-opacity:1;stroke:#c50000;stroke-width:0;stroke-linecap:butt;stroke-linejoin:miter;stroke-miterlimit:4;stroke-dasharray:none;stroke-opacity:1"
       d="m 59.332605,36.992046 -14.609375,0.06445 c -12.668,0 -12.144593,-0.02817 -12.558594,0.673828 -0.167999,0.287 -0.205953,0.678234 -0.251953,2.740234 l 0.02148,2.035156 2.992187,0.02344 0.0059,-2.109375 h 21.423828 v 2.914062 c 0,2.226 -0.04002,3.08486 -0.166016,3.63086 -0.506,2.195 -1.971125,3.793453 -3.953125,4.314453 -0.496,0.13 -1.364203,0.176734 -3.283203,0.177734 l -2.316406,0.02344 0.0078,3.298828 2.84375,0.0078 c 2.916,-0.045 3.204344,-0.06926 3.902344,-0.322265 2.843,-1.031 4.912734,-3.389657 5.677734,-6.472656 0.214,-0.86 0.229532,-1.265579 0.269532,-6.642579 0.015,-2.096 0.01609,-3.348421 -0.0039,-4.357421 z m -28.808593,5.863281 c -2.243,0.015 -4.62761,0.05908 -7.97461,0.08008 -8.755,0.057 -9.329609,0.07334 -9.599609,0.277344 -0.293,0.222 -0.628906,0.867937 -0.628907,1.210937 0,0.174 -0.35875,0.191406 -3.4687495,0.191406 -3.252,0 -3.4953594,0.01538 -3.8183594,0.234375 -0.726,0.493 -0.9363281,1.492828 -0.4863281,2.298829 0.353,0.633 0.6094375,0.749687 1.7734375,0.804687 l 1.0507813,0.05078 -0.025391,6.25586 -0.027344,6.255859 -1.0292969,0.06055 c -1.46,0.085 -1.9570312,0.506109 -1.9570313,1.662109 0,0.732 0.2531251,1.181657 0.828125,1.472657 0.419,0.21 1.3385469,0.219656 21.6855464,0.222656 20.96,0.003 21.25936,-0.0013 21.693359,-0.236328 0.537,-0.29 0.814454,-0.775547 0.814454,-1.435547 0,-0.637 -0.243688,-1.155172 -0.679688,-1.451172 -0.276,-0.188 -0.543797,-0.234375 -1.341797,-0.234375 h -0.99414 v -2.869145 l 0.0059,-7.972656 V 48.00767 l 0.994141,-0.05078 c 0.714,-0.034 1.092031,-0.111531 1.332031,-0.269531 0.92,-0.61 0.922812,-2.208984 0.0078,-2.833984 -0.323,-0.22 -0.5645,-0.233375 -3.8125,-0.234375 H 41.399 l -0.06641,-0.390625 c -0.073,-0.433 -0.290359,-0.771985 -0.693359,-1.083985 -0.234,-0.183 -0.590281,-0.205078 -2.988281,-0.205078 -2.782,-0.086 -4.883953,-0.09898 -7.126953,-0.08398 z M 10.389246,47.97642 h 32.9375 V 60.577983 H 10.387293 v -6.300781 z" />
    <path
       id="path1034"
       style="fill:#2d527c;fill-opacity:1;stroke:#000000;stroke-width:0;stroke-linecap:butt;stroke-linejoin:miter;stroke-miterlimit:4;stroke-dasharray:none;stroke-opacity:1"
       d="m 24.201778,2.4706317 v 0.00195 c -0.266,0.049 -0.523016,0.2074687 -0.791016,0.4804687 l -0.396484,0.4043001 -0.02344,15.5039045 c -0.028,15.39 -0.02755,15.505485 0.189453,15.896485 0.408001,0.738 1.349766,0.992922 2.009766,0.544921 0.494,-0.335999 0.693766,-0.739687 0.759766,-1.554687 l 0.05664,-0.714844 0.701172,-0.08398 c 1.213,-0.145 12.154906,0.03428 14.503906,0.238281 5.473,0.474 9.486672,1.18761 12.513672,2.22461 1.475,0.505 2.238047,0.844234 2.498047,1.115234 l 3.111328,-0.01758 c -0.057,-1.812 -0.27214,-2.446531 -0.86914,-4.394532 -2.1,-6.859 -6.202266,-12.801281 -12.072266,-17.488281 -4.98,-3.976 -12.172234,-7.4008264 -18.740234,-8.9238264 -1.838,-0.426 -1.677735,-0.3196094 -1.677735,-1.0996093 0,-0.967 -0.308828,-1.6230782 -0.923828,-1.9550782 -0.309,-0.166 -0.583609,-0.2277343 -0.849609,-0.1777344 z m 1.933594,6.3046876 c 0.273,0 3.299859,0.8013589 4.505859,1.1933579 7.384,2.3979998 13.697875,6.3172498 18.171875,11.2812498 2.356,2.614 4.030641,5.164156 5.431641,8.285156 0.476,1.06 1.126953,2.701797 1.126953,2.841797 0,0.081 -0.294391,0.0072 -1.025391,-0.259765 -1.679,-0.614 -5.373531,-1.402969 -8.394531,-1.792969 -4.434,-0.572 -9.958203,-0.840625 -15.783203,-0.765625 l -4.1875,0.05273 V 19.193287 c 0,-9.013 0.0203,-10.4179677 0.154297,-10.4179677 z" />
  </g>
</svg>
