<svg xmlns="http://www.w3.org/2000/svg" fill="none" viewBox="0 0 64 66">
  <defs/>
  <g fill="#2d527c">
    <path d="M16.557 18.77c-.02 1.012-.873 1.808-1.917 1.788l-3.66-.07c-1.044-.019-1.866-.848-1.847-1.86.02-1.013.873-1.81 1.917-1.79l3.66.07c1.044.02 1.866.849 1.847 1.861zM21.217 10.837c-.495.883-1.624 1.18-2.534.67L15.49 9.714c-.911-.51-1.243-1.63-.747-2.513.496-.883 1.624-1.181 2.534-.67l3.192 1.793c.911.51 1.243 1.63.747 2.513zM21.217 26.658c-.495-.882-1.624-1.18-2.534-.67l-3.192 1.794c-.911.51-1.243 1.63-.747 2.513.496.882 1.624 1.18 2.534.67l3.192-1.794c.911-.51 1.243-1.63.747-2.513z"/>
  </g>
  <path fill="#ffc10e" d="M48.428 27.37c-1.134-.326-4.131-.861-5.965-1.065-2.769-.307-5.44-.422-9.782-.422l-4.202.001.033-6.571.033-6.571.32.04c.58.071 3.292.796 4.576 1.221 1.526.506 4.125 1.644 5.567 2.438 3.66 2.016 6.728 4.768 8.61 7.724.614.966 1.771 3.165 1.771 3.367 0 .102-.101.085-.962-.163z"/>
  <path fill="#56abe1" d="M10.386 54.278v-6.302h32.941V60.58H10.386z"/>
  <path fill="#2d527c" d="M24.216 2.55v.003c-.266.049-.522.207-.79.48l-.396.404-.025 15.504c-.028 15.39-.027 15.506.19 15.897.408.738 1.351.993 2.011.545.494-.336.692-.74.758-1.555l.058-.715.7-.084c1.213-.145 12.155.035 14.504.239 5.473.474 9.488 1.187 12.515 2.224 1.475.505 2.238.844 2.498 1.115l3.11-.017c-.057-1.812-.271-2.447-.868-4.395-2.1-6.859-6.202-12.801-12.072-17.488-4.98-3.976-12.174-7.401-18.742-8.924-1.838-.426-1.676-.32-1.676-1.1 0-.967-.309-1.623-.924-1.955-.309-.166-.585-.227-.851-.177zm1.935 6.305c.273 0 3.3.802 4.506 1.194 7.384 2.398 13.698 6.317 18.172 11.281 2.356 2.614 4.029 5.164 5.43 8.285.476 1.06 1.127 2.702 1.127 2.842 0 .081-.293.007-1.024-.26-1.679-.614-5.375-1.403-8.396-1.793-4.434-.572-9.958-.84-15.783-.765l-4.186.052V19.273c0-9.013.02-10.418.154-10.418zm33.182 28.137l-14.611.065c-12.668 0-12.143-.029-12.557.673-.168.287-.206.678-.252 2.74l.02 2.036 2.992.023.006-2.11h21.424v2.915c0 2.226-.04 3.084-.166 3.63-.506 2.195-1.97 3.794-3.952 4.315-.496.13-1.364.177-3.283.178l-2.317.023.008 3.3 2.843.007c2.916-.045 3.205-.069 3.903-.322 2.843-1.031 4.912-3.39 5.677-6.473.214-.86.23-1.265.27-6.642.015-2.096.016-3.349-.004-4.358zm-28.809 5.863c-2.243.015-4.629.059-7.976.08-8.755.057-9.328.074-9.598.278-.293.222-.629.867-.629 1.21 0 .174-.36.192-3.47.192-3.252 0-3.494.016-3.817.235-.726.493-.938 1.492-.488 2.298.353.633.611.75 1.775.805l1.051.05-.027 6.257-.026 6.256-1.029.06c-1.46.085-1.957.506-1.957 1.662 0 .732.253 1.182.828 1.473.419.21 1.337.22 21.684.223 20.96.003 21.261-.002 21.695-.237.537-.29.813-.775.813-1.435 0-.637-.244-1.155-.68-1.451-.276-.188-.542-.235-1.34-.235h-.996v-2.869l.007-7.973v-1.726l.994-.05c.714-.034 1.092-.112 1.332-.27.92-.61.923-2.21.008-2.835-.323-.22-.564-.233-3.812-.234h-3.467l-.067-.39c-.073-.433-.29-.773-.693-1.085-.234-.183-.59-.205-2.988-.205-2.782-.086-4.884-.099-7.127-.084zm-20.136 5.121h32.939v12.602h-32.94v-6.3z"/>
  <path fill="#cee8fa" d="M10.454 54.268v-6.231h32.792v12.462H10.454z"/>
</svg>
